<?xml version="1.0" encoding="UTF-8"?>
<svg version="1.1" xmlns="http://www.w3.org/2000/svg" width="1024" height="1024">
<path d="M0 0 C8.02294509 2.87797028 11.85725 14.29267736 15.484375 21.27734375 C16.86205145 24.04465246 16.86205145 24.04465246 19 26 C19.82727105 27.58609881 20.61129523 29.19483445 21.375 30.8125 C25.62524282 39.45706167 30.51325931 47.73076593 35.32080078 56.07373047 C38.23933573 61.15973801 41.11888247 66.26773215 44 71.375 C47.31946754 77.25804617 50.64165467 83.13904157 54 89 C54.66 89 55.32 89 56 89 C56.144375 89.78375 56.28875 90.5675 56.4375 91.375 C57.25909167 95.20909446 57.61751299 95.74500866 61 98 C61 98.99 61 99.98 61 101 C61.84861345 102.72469542 62.78096934 104.40866295 63.75390625 106.06640625 C64.35323975 107.09556152 64.95257324 108.1247168 65.57006836 109.18505859 C66.2275708 110.29961426 66.88507324 111.41416992 67.5625 112.5625 C68.24751889 113.73478429 68.93183399 114.9074801 69.61547852 116.08056641 C71.03677816 118.51807265 72.46109701 120.95377491 73.88769531 123.38818359 C77.09671189 128.86889713 80.26639226 134.37229491 83.4375 139.875 C84.05318848 140.94194092 84.66887695 142.00888184 85.30322266 143.1081543 C91.89792996 154.5416576 98.44199409 166.00401159 104.98388672 177.46777344 C106.98935814 180.98180679 108.99638201 184.49495157 111.00390625 188.0078125 C111.33388611 188.5852269 111.66386597 189.1626413 112.00384521 189.7575531 C113.33408493 192.08518831 114.66438809 194.41278727 115.99468994 196.74038696 C120.07161512 203.87381701 124.14673294 211.00827192 128.21891785 218.14440918 C131.20116651 223.36962339 134.19042907 228.59080441 137.1796875 233.81201172 C138.90885386 236.84037201 140.62759983 239.87440624 142.34375 242.91015625 C143.33316985 244.64853056 144.32274184 246.38681829 145.3125 248.125 C145.96955933 249.29784546 145.96955933 249.29784546 146.63989258 250.49438477 C148.53167067 253.8011268 149.78205251 255.85470167 153 258 C153.36810774 259.65933287 153.69605873 261.32772353 154 263 C154.90771443 264.89515587 155.8898811 266.75548678 156.921875 268.5859375 C157.83308105 270.21426514 157.83308105 270.21426514 158.76269531 271.87548828 C159.42478426 273.04218858 160.08722684 274.20868825 160.75 275.375 C161.42593576 276.57378545 162.1013862 277.77284467 162.77636719 278.97216797 C163.81356096 280.81378199 164.85176817 282.6547868 165.89312744 284.49404907 C168.2178329 288.60035194 170.50820004 292.7241541 172.78125 296.859375 C173.93738098 298.94798256 175.09362533 301.03652736 176.25 303.125 C176.78592773 304.10774902 177.32185547 305.09049805 177.87402344 306.10302734 C178.37450195 306.99973145 178.87498047 307.89643555 179.390625 308.8203125 C180.0407959 310.00004639 180.0407959 310.00004639 180.70410156 311.20361328 C181.95812027 313.31069157 181.95812027 313.31069157 185 314 C185.10997314 314.88776123 185.21994629 315.77552246 185.33325195 316.69018555 C186.00331138 320.01643807 186.92680794 322.07409762 188.66796875 324.95703125 C189.50400635 326.36178711 189.50400635 326.36178711 190.35693359 327.79492188 C190.96102051 328.79072266 191.56510742 329.78652344 192.1875 330.8125 C193.45646537 332.94279758 194.72332239 335.07435219 195.98828125 337.20703125 C196.64521973 338.31256348 197.3021582 339.4180957 197.97900391 340.55712891 C201.36387873 346.32343777 204.62063002 352.15915807 207.875 358 C208.48754639 359.09803955 209.10009277 360.1960791 209.73120117 361.32739258 C211.15599033 363.88390301 212.57904071 366.44135947 214 369 C214.99 369 215.98 369 217 369 C217.08894531 370.02609375 217.17789063 371.0521875 217.26953125 372.109375 C218.05976111 376.31829984 219.34368393 378.6963284 221.6875 382.25 C224.82346241 387.04832695 227.64204118 391.92507011 230.36450195 396.97070312 C237.76827337 410.68409255 245.32795315 424.33361462 253.30078125 437.72485352 C256.70490719 443.4553647 259.98356306 449.25258583 263.25 455.0625 C267.73891105 463.04440498 272.30310085 470.97672074 276.9375 478.875 C282.3706962 488.14179418 287.66357284 497.47946931 292.89477539 506.86157227 C296.52139169 513.36473278 300.17533548 519.85061135 303.875 526.3125 C304.35356445 527.14837646 304.83212891 527.98425293 305.32519531 528.84545898 C306.8827621 531.56404198 308.44134138 534.28204286 310 537 C312.6267792 541.58231657 315.25192983 546.16555963 317.875 550.75 C318.38021179 551.63273087 318.38021179 551.63273087 318.89562988 552.53329468 C324.42924464 562.20585581 329.89717225 571.91339599 335.30810547 581.65527344 C338.36614361 587.14653925 341.51718723 592.54404763 344.875 597.85839844 C346.34617608 600.65899665 346.4902435 602.8951245 346 606 C342.52716109 607.56196021 339.82084022 608.24994331 336.01931959 608.24954766 C335.03346336 608.25429847 334.04760714 608.25904928 333.03187647 608.26394406 C331.41531284 608.25649179 331.41531284 608.25649179 329.76609135 608.24888897 C328.61233722 608.25149625 327.4585831 608.25410354 326.26986673 608.25678983 C323.05728273 608.26201391 319.84485207 608.25824101 316.63227714 608.25073375 C313.14105417 608.24477065 309.64984703 608.25039098 306.15862411 608.25455457 C300.03642544 608.26024669 293.91426381 608.25848094 287.79206657 608.2518692 C278.68823321 608.24206447 269.58442705 608.24368064 260.48059055 608.2476195 C245.16582727 608.2539004 229.85107937 608.25071639 214.53631783 608.24202538 C199.36530985 608.23341773 184.19430879 608.22850506 169.02329826 608.22869301 C168.08041055 608.22870065 167.13752284 608.2287083 166.16606278 608.22871618 C162.33879567 608.22875708 158.51152857 608.22882269 154.68426147 608.22892199 C118.76272111 608.22982857 82.84119129 608.21987579 46.91965459 608.20449232 C14.99062431 608.19086904 -16.93839848 608.18463097 -48.86743164 608.18530273 C-50.91736897 608.18534315 -52.96730629 608.18538351 -55.01724362 608.18542381 C-56.03068297 608.18544416 -57.04412232 608.18546452 -58.08827196 608.18548548 C-63.18956461 608.18558627 -68.29085727 608.18567686 -73.39214993 608.18575573 C-74.90168936 608.1857808 -74.90168936 608.1857808 -76.44172454 608.18580638 C-103.10360968 608.18617141 -129.76549388 608.18163434 -156.42737824 608.17542917 C-157.37559819 608.17520889 -158.32381814 608.17498862 -159.30077202 608.17476168 C-163.11396687 608.17387342 -166.92716171 608.17298503 -170.74035655 608.17207072 C-184.01733288 608.16890877 -197.29430847 608.1674012 -210.57128514 608.16695923 C-227.68025489 608.16636258 -244.78921845 608.16237709 -261.89818554 608.15252777 C-270.95072584 608.14740658 -280.00325706 608.14500546 -289.05579874 608.14652396 C-295.09745098 608.147257 -301.13909437 608.14436503 -307.18074378 608.13848015 C-310.62645491 608.13522264 -314.07214698 608.1335516 -317.51785903 608.13624074 C-321.22534303 608.13829492 -324.93277109 608.13426058 -328.64025021 608.12863445 C-329.71561813 608.13068977 -330.79098606 608.13274509 -331.89894089 608.13486269 C-336.71220822 608.12142286 -341.26907272 608.01633744 -346 607 C-345.60632005 600.65924 -343.31778973 596.60844224 -339.9375 591.3125 C-339.00111357 589.83446576 -338.07238533 588.35154475 -337.15234375 586.86328125 C-336.73976318 586.21657471 -336.32718262 585.56986816 -335.90209961 584.90356445 C-334.71450282 582.74864176 -334.71450282 582.74864176 -335 579 C-334.01 578.67 -333.02 578.34 -332 578 C-330.69594862 576.20645277 -330.69594862 576.20645277 -329.57421875 573.93359375 C-329.11474854 573.06806885 -328.65527832 572.20254395 -328.18188477 571.31079102 C-327.68873779 570.36260498 -327.19559082 569.41441895 -326.6875 568.4375 C-322.30915113 560.20981624 -317.79240114 552.09337494 -313.0625 544.0625 C-307.75731939 535.04008899 -302.55305644 525.96764161 -297.43774414 516.83618164 C-294.43499814 511.48792208 -291.33907973 506.21939721 -288.1015625 501.00927734 C-286.83975593 499.08961526 -286.83975593 499.08961526 -287 497 C-286.34 497 -285.68 497 -285 497 C-284.72704102 496.28046143 -284.45408203 495.56092285 -284.17285156 494.81958008 C-283.01939229 492.0466198 -281.70261313 489.5052063 -280.234375 486.88671875 C-279.68128662 485.89849121 -279.12819824 484.91026367 -278.55834961 483.89208984 C-277.96159424 482.8345752 -277.36483887 481.77706055 -276.75 480.6875 C-276.12810791 479.58100098 -275.50621582 478.47450195 -274.86547852 477.33447266 C-270.05342097 468.8005657 -265.13684811 460.32993965 -260.18041992 451.87915039 C-255.69535396 444.22307837 -251.31231907 436.51375372 -246.96240234 428.78027344 C-242.88012228 421.53191735 -238.73186562 414.32356145 -234.5625 407.125 C-228.93361696 397.40390014 -223.41036274 387.62882428 -217.94897461 377.81274414 C-214.03022154 370.78630643 -210.01343228 363.8270661 -205.8425293 356.94702148 C-203.71295683 353.70325477 -203.71295683 353.70325477 -203 350 C-202.34 350 -201.68 350 -201 350 C-200.75378906 349.32195312 -200.50757813 348.64390625 -200.25390625 347.9453125 C-198.75316226 344.42020045 -196.87653319 341.17031579 -194.9375 337.875 C-192.11484561 333.10966103 -192.11484561 333.10966103 -190 328 C-189.01354356 326.65661567 -188.01206155 325.32420134 -187 324 C-186.10460496 322.51251066 -185.23632824 321.00847997 -184.390625 319.4921875 C-183.89006592 318.59975342 -183.38950684 317.70731934 -182.8737793 316.7878418 C-182.33793213 315.826604 -181.80208496 314.86536621 -181.25 313.875 C-177.48051279 307.14691946 -173.6883215 300.43461567 -169.80859375 293.76953125 C-169.29116104 292.87935303 -169.29116104 292.87935303 -168.76327515 291.97119141 C-167.07219487 289.06288611 -165.37664081 286.15741042 -163.67480469 283.25537109 C-163.06411133 282.20559082 -162.45341797 281.15581055 -161.82421875 280.07421875 C-161.27854248 279.14182373 -160.73286621 278.20942871 -160.1706543 277.2487793 C-158.84608236 275.1268704 -158.84608236 275.1268704 -159 273 C-158.56856689 272.57420654 -158.13713379 272.14841309 -157.69262695 271.7097168 C-155.56693622 269.56256373 -154.36183777 267.2992152 -152.91796875 264.64453125 C-152.32266357 263.55906006 -151.7273584 262.47358887 -151.11401367 261.35522461 C-150.64347061 260.4896846 -150.64347061 260.4896846 -150.16342163 259.60665894 C-148.49591839 256.54107893 -146.81085201 253.48520553 -145.125 250.4296875 C-144.78119797 249.80611862 -144.43739594 249.18254974 -144.08317566 248.54008484 C-140.71465618 242.44911814 -137.21620778 236.43693851 -133.6875 230.4375 C-129.11080429 222.65168785 -124.62159116 214.83002025 -120.28637695 206.90698242 C-118.10511487 202.93177655 -115.8150799 199.07468338 -113.375 195.25 C-111.20079835 191.71997597 -110.33091064 189.23756592 -111 185 C-110.01 185.33 -109.02 185.66 -108 186 C-106.20354874 182.77347309 -104.41369581 179.5433318 -102.625 176.3125 C-102.11710938 175.40048828 -101.60921875 174.48847656 -101.0859375 173.54882812 C-100.35117187 172.21948242 -100.35117187 172.21948242 -99.6015625 170.86328125 C-99.15119629 170.05157471 -98.70083008 169.23986816 -98.23681641 168.40356445 C-96.9914857 165.98345376 -95.96923918 163.54178029 -95 161 C-94.34 161 -93.68 161 -93 161 C-92.79375 160.21625 -92.5875 159.4325 -92.375 158.625 C-90.14802867 152.75389376 -86.6871713 147.59564815 -83.2734375 142.34375 C-79.25119342 136.20194256 -79.25119342 136.20194256 -79 129 C-78.40558105 128.94142822 -77.81116211 128.88285645 -77.19873047 128.82250977 C-74.00708411 127.62856611 -73.4056153 125.81604401 -71.8203125 122.83984375 C-71.22855225 121.74849121 -70.63679199 120.65713867 -70.02709961 119.53271484 C-69.71755341 118.94754089 -69.4080072 118.36236694 -69.08908081 117.75946045 C-67.4435871 114.64973726 -65.75501717 111.56339226 -64.07421875 108.47265625 C-63.5619146 107.52585999 -63.5619146 107.52585999 -63.03926086 106.55993652 C-59.80097367 100.58852745 -56.39038248 94.72471021 -52.9375 88.875 C-48.1907456 80.80418228 -43.55267154 72.68186098 -39 64.5 C-33.77854472 55.11631357 -28.42559734 45.8192581 -22.98632812 36.56030273 C-19.39972518 30.44200999 -15.91062491 24.2804121 -12.5 18.0625 C-3.54003193 1.77001597 -3.54003193 1.77001597 0 0 Z M-78 130 C-77.67 130.99 -77.34 131.98 -77 133 C-76.67 132.01 -76.34 131.02 -76 130 C-76.66 130 -77.32 130 -78 130 Z " fill="#000000" transform="translate(511,207)"/>
<path d="M0 0 C0.33 0.66 0.66 1.32 1 2 C0.34 2.66 -0.32 3.32 -1 4 C-0.67 2.68 -0.34 1.36 0 0 Z " fill="#323234" transform="translate(465,280)"/>
<path d="M0 0 C0.66 0 1.32 0 2 0 C1.67 0.99 1.34 1.98 1 3 C0.67 2.01 0.34 1.02 0 0 Z " fill="#343534" transform="translate(790,688)"/>
<path d="M0 0 C0.99 0.495 0.99 0.495 2 1 C1.67 1.66 1.34 2.32 1 3 C0.67 2.01 0.34 1.02 0 0 Z " fill="#353536" transform="translate(758,632)"/>
<path d="M0 0 C0.99 0.495 0.99 0.495 2 1 C1.01 1.495 1.01 1.495 0 2 C0 1.34 0 0.68 0 0 Z " fill="#373838" transform="translate(241,672)"/>
<path d="M0 0 C0.33 0.66 0.66 1.32 1 2 C0.34 1.67 -0.32 1.34 -1 1 C-0.67 0.67 -0.34 0.34 0 0 Z " fill="#313231" transform="translate(450,306)"/>
<path d="" fill="#393A3A" transform="translate(0,0)"/>
<path d="" fill="#363636" transform="translate(0,0)"/>
<path d="" fill="#343434" transform="translate(0,0)"/>
<path d="M0 0 C2 1 2 1 2 1 Z " fill="#353535" transform="translate(200,737)"/>
<path d="" fill="#353636" transform="translate(0,0)"/>
<path d="" fill="#353737" transform="translate(0,0)"/>
<path d="" fill="#343435" transform="translate(0,0)"/>
<path d="" fill="#343333" transform="translate(0,0)"/>
<path d="" fill="#333435" transform="translate(0,0)"/>
<path d="" fill="#323232" transform="translate(0,0)"/>
<path d="" fill="#2F312F" transform="translate(0,0)"/>
<path d="" fill="#313032" transform="translate(0,0)"/>
<path d="" fill="#302F2F" transform="translate(0,0)"/>
<path d="" fill="#343333" transform="translate(0,0)"/>
<path d="" fill="#303030" transform="translate(0,0)"/>
<path d="" fill="#333232" transform="translate(0,0)"/>
<path d="" fill="#323230" transform="translate(0,0)"/>
<path d="" fill="#323231" transform="translate(0,0)"/>
<path d="M0 0 C2 1 2 1 2 1 Z " fill="#343232" transform="translate(416,360)"/>
<path d="" fill="#323231" transform="translate(0,0)"/>
<path d="" fill="#313130" transform="translate(0,0)"/>
<path d="" fill="#333232" transform="translate(0,0)"/>
<path d="" fill="#303231" transform="translate(0,0)"/>
<path d="" fill="#333131" transform="translate(0,0)"/>
<path d="" fill="#343333" transform="translate(0,0)"/>
<path d="" fill="#313232" transform="translate(0,0)"/>
<path d="" fill="#4B4B4A" transform="translate(0,0)"/>
<path d="" fill="#454444" transform="translate(0,0)"/>
<path d="" fill="#393939" transform="translate(0,0)"/>
<path d="" fill="#3F4040" transform="translate(0,0)"/>
<path d="" fill="#3A3B39" transform="translate(0,0)"/>
<path d="" fill="#3B3938" transform="translate(0,0)"/>
<path d="" fill="#373838" transform="translate(0,0)"/>
<path d="" fill="#373837" transform="translate(0,0)"/>
<path d="" fill="#393638" transform="translate(0,0)"/>
<path d="" fill="#3B3A39" transform="translate(0,0)"/>
<path d="" fill="#353235" transform="translate(0,0)"/>
<path d="" fill="#363534" transform="translate(0,0)"/>
<path d="" fill="#39393A" transform="translate(0,0)"/>
<path d="" fill="#3B3B3B" transform="translate(0,0)"/>
<path d="" fill="#383937" transform="translate(0,0)"/>
<path d="" fill="#383636" transform="translate(0,0)"/>
<path d="" fill="#353635" transform="translate(0,0)"/>
<path d="" fill="#393937" transform="translate(0,0)"/>
<path d="" fill="#383738" transform="translate(0,0)"/>
<path d="" fill="#363637" transform="translate(0,0)"/>
<path d="" fill="#373637" transform="translate(0,0)"/>
<path d="" fill="#353835" transform="translate(0,0)"/>
<path d="" fill="#363537" transform="translate(0,0)"/>
<path d="" fill="#383836" transform="translate(0,0)"/>
<path d="" fill="#343535" transform="translate(0,0)"/>
<path d="" fill="#333535" transform="translate(0,0)"/>
<path d="" fill="#343535" transform="translate(0,0)"/>
<path d="" fill="#393636" transform="translate(0,0)"/>
<path d="" fill="#363636" transform="translate(0,0)"/>
<path d="" fill="#353433" transform="translate(0,0)"/>
<path d="" fill="#353536" transform="translate(0,0)"/>
<path d="" fill="#373737" transform="translate(0,0)"/>
<path d="" fill="#353935" transform="translate(0,0)"/>
<path d="" fill="#373634" transform="translate(0,0)"/>
<path d="" fill="#363736" transform="translate(0,0)"/>
<path d="" fill="#373638" transform="translate(0,0)"/>
<path d="" fill="#383635" transform="translate(0,0)"/>
<path d="" fill="#343736" transform="translate(0,0)"/>
<path d="" fill="#363738" transform="translate(0,0)"/>
<path d="" fill="#383737" transform="translate(0,0)"/>
<path d="" fill="#373836" transform="translate(0,0)"/>
<path d="" fill="#383936" transform="translate(0,0)"/>
<path d="" fill="#4C4E4D" transform="translate(0,0)"/>
<path d="" fill="#373838" transform="translate(0,0)"/>
<path d="" fill="#343535" transform="translate(0,0)"/>
<path d="" fill="#383836" transform="translate(0,0)"/>
<path d="" fill="#444344" transform="translate(0,0)"/>
<path d="" fill="#383836" transform="translate(0,0)"/>
<path d="" fill="#363837" transform="translate(0,0)"/>
<path d="" fill="#383A39" transform="translate(0,0)"/>
<path d="" fill="#363433" transform="translate(0,0)"/>
<path d="" fill="#353636" transform="translate(0,0)"/>
<path d="" fill="#363636" transform="translate(0,0)"/>
<path d="" fill="#373939" transform="translate(0,0)"/>
<path d="" fill="#343334" transform="translate(0,0)"/>
<path d="" fill="#353534" transform="translate(0,0)"/>
<path d="" fill="#363536" transform="translate(0,0)"/>
<path d="" fill="#383635" transform="translate(0,0)"/>
<path d="" fill="#393636" transform="translate(0,0)"/>
<path d="" fill="#373436" transform="translate(0,0)"/>
<path d="" fill="#393635" transform="translate(0,0)"/>
<path d="" fill="#393737" transform="translate(0,0)"/>
<path d="" fill="#333432" transform="translate(0,0)"/>
<path d="" fill="#363836" transform="translate(0,0)"/>
<path d="" fill="#383435" transform="translate(0,0)"/>
<path d="" fill="#363737" transform="translate(0,0)"/>
<path d="" fill="#373634" transform="translate(0,0)"/>
<path d="" fill="#373735" transform="translate(0,0)"/>
<path d="" fill="#353333" transform="translate(0,0)"/>
<path d="" fill="#333432" transform="translate(0,0)"/>
<path d="" fill="#333233" transform="translate(0,0)"/>
<path d="" fill="#353535" transform="translate(0,0)"/>
<path d="" fill="#333635" transform="translate(0,0)"/>
<path d="" fill="#353533" transform="translate(0,0)"/>
<path d="" fill="#595958" transform="translate(0,0)"/>
<path d="" fill="#353433" transform="translate(0,0)"/>
<path d="" fill="#363633" transform="translate(0,0)"/>
<path d="" fill="#323333" transform="translate(0,0)"/>
<path d="" fill="#373836" transform="translate(0,0)"/>
<path d="" fill="#353636" transform="translate(0,0)"/>
<path d="" fill="#363334" transform="translate(0,0)"/>
<path d="" fill="#323131" transform="translate(0,0)"/>
<path d="" fill="#343431" transform="translate(0,0)"/>
<path d="" fill="#343432" transform="translate(0,0)"/>
<path d="" fill="#313232" transform="translate(0,0)"/>
<path d="" fill="#333133" transform="translate(0,0)"/>
<path d="" fill="#373434" transform="translate(0,0)"/>
<path d="" fill="#333535" transform="translate(0,0)"/>
<path d="" fill="#323231" transform="translate(0,0)"/>
<path d="" fill="#353433" transform="translate(0,0)"/>
<path d="" fill="#343231" transform="translate(0,0)"/>
<path d="" fill="#343232" transform="translate(0,0)"/>
<path d="" fill="#313031" transform="translate(0,0)"/>
<path d="" fill="#333434" transform="translate(0,0)"/>
<path d="" fill="#333232" transform="translate(0,0)"/>
<path d="" fill="#333333" transform="translate(0,0)"/>
<path d="" fill="#343634" transform="translate(0,0)"/>
<path d="" fill="#333233" transform="translate(0,0)"/>
<path d="" fill="#353434" transform="translate(0,0)"/>
<path d="" fill="#343433" transform="translate(0,0)"/>
<path d="" fill="#353534" transform="translate(0,0)"/>
<path d="" fill="#343532" transform="translate(0,0)"/>
<path d="" fill="#353533" transform="translate(0,0)"/>
<path d="" fill="#333332" transform="translate(0,0)"/>
<path d="" fill="#343333" transform="translate(0,0)"/>
<path d="" fill="#373534" transform="translate(0,0)"/>
<path d="" fill="#333435" transform="translate(0,0)"/>
<path d="" fill="#3B3A3A" transform="translate(0,0)"/>
<path d="" fill="#313232" transform="translate(0,0)"/>
<path d="" fill="#333432" transform="translate(0,0)"/>
<path d="" fill="#353533" transform="translate(0,0)"/>
<path d="" fill="#353533" transform="translate(0,0)"/>
<path d="" fill="#343534" transform="translate(0,0)"/>
<path d="" fill="#353332" transform="translate(0,0)"/>
<path d="" fill="#313231" transform="translate(0,0)"/>
<path d="" fill="#373638" transform="translate(0,0)"/>
<path d="" fill="#343432" transform="translate(0,0)"/>
<path d="" fill="#313030" transform="translate(0,0)"/>
<path d="" fill="#323433" transform="translate(0,0)"/>
<path d="" fill="#333232" transform="translate(0,0)"/>
<path d="" fill="#565554" transform="translate(0,0)"/>
<path d="" fill="#373536" transform="translate(0,0)"/>
<path d="" fill="#323433" transform="translate(0,0)"/>
<path d="" fill="#333431" transform="translate(0,0)"/>
<path d="" fill="#333130" transform="translate(0,0)"/>
<path d="" fill="#333231" transform="translate(0,0)"/>
<path d="" fill="#343433" transform="translate(0,0)"/>
<path d="" fill="#333233" transform="translate(0,0)"/>
<path d="" fill="#333432" transform="translate(0,0)"/>
<path d="" fill="#343331" transform="translate(0,0)"/>
<path d="" fill="#333232" transform="translate(0,0)"/>
<path d="" fill="#353133" transform="translate(0,0)"/>
<path d="" fill="#343334" transform="translate(0,0)"/>
<path d="" fill="#343332" transform="translate(0,0)"/>
<path d="" fill="#343232" transform="translate(0,0)"/>
<path d="" fill="#343434" transform="translate(0,0)"/>
<path d="" fill="#333433" transform="translate(0,0)"/>
<path d="" fill="#353132" transform="translate(0,0)"/>
<path d="" fill="#343435" transform="translate(0,0)"/>
<path d="" fill="#2F2F30" transform="translate(0,0)"/>
<path d="" fill="#313032" transform="translate(0,0)"/>
<path d="" fill="#313132" transform="translate(0,0)"/>
<path d="" fill="#343334" transform="translate(0,0)"/>
<path d="" fill="#313231" transform="translate(0,0)"/>
<path d="" fill="#323232" transform="translate(0,0)"/>
<path d="" fill="#313230" transform="translate(0,0)"/>
<path d="" fill="#333233" transform="translate(0,0)"/>
<path d="" fill="#313232" transform="translate(0,0)"/>
<path d="" fill="#32302F" transform="translate(0,0)"/>
<path d="" fill="#322F31" transform="translate(0,0)"/>
<path d="" fill="#373335" transform="translate(0,0)"/>
<path d="" fill="#323031" transform="translate(0,0)"/>
<path d="" fill="#333330" transform="translate(0,0)"/>
<path d="" fill="#2F2F31" transform="translate(0,0)"/>
<path d="" fill="#353332" transform="translate(0,0)"/>
<path d="" fill="#333333" transform="translate(0,0)"/>
<path d="" fill="#363634" transform="translate(0,0)"/>
<path d="" fill="#323232" transform="translate(0,0)"/>
<path d="" fill="#312F32" transform="translate(0,0)"/>
<path d="" fill="#303230" transform="translate(0,0)"/>
<path d="" fill="#323333" transform="translate(0,0)"/>
<path d="" fill="#303032" transform="translate(0,0)"/>
<path d="" fill="#333132" transform="translate(0,0)"/>
<path d="" fill="#313133" transform="translate(0,0)"/>
<path d="" fill="#353233" transform="translate(0,0)"/>
<path d="" fill="#323132" transform="translate(0,0)"/>
<path d="" fill="#323130" transform="translate(0,0)"/>
<path d="" fill="#303233" transform="translate(0,0)"/>
<path d="" fill="#333331" transform="translate(0,0)"/>
<path d="" fill="#313133" transform="translate(0,0)"/>
<path d="" fill="#323535" transform="translate(0,0)"/>
<path d="" fill="#343333" transform="translate(0,0)"/>
<path d="" fill="#323031" transform="translate(0,0)"/>
<path d="" fill="#333433" transform="translate(0,0)"/>
<path d="" fill="#353536" transform="translate(0,0)"/>
<path d="" fill="#323637" transform="translate(0,0)"/>
<path d="" fill="#333232" transform="translate(0,0)"/>
<path d="" fill="#333435" transform="translate(0,0)"/>
<path d="" fill="#343233" transform="translate(0,0)"/>
<path d="" fill="#353433" transform="translate(0,0)"/>
<path d="" fill="#343334" transform="translate(0,0)"/>
<path d="" fill="#353434" transform="translate(0,0)"/>
<path d="" fill="#353534" transform="translate(0,0)"/>
<path d="" fill="#323031" transform="translate(0,0)"/>
<path d="" fill="#37373A" transform="translate(0,0)"/>
<path d="" fill="#343332" transform="translate(0,0)"/>
<path d="" fill="#39393A" transform="translate(0,0)"/>
<path d="" fill="#373C3B" transform="translate(0,0)"/>
<path d="" fill="#333634" transform="translate(0,0)"/>
<path d="" fill="#38393A" transform="translate(0,0)"/>
<path d="" fill="#353435" transform="translate(0,0)"/>
<path d="" fill="#39383B" transform="translate(0,0)"/>
<path d="" fill="#383837" transform="translate(0,0)"/>
<path d="" fill="#3E3F3E" transform="translate(0,0)"/>
<path d="" fill="#3D3B3D" transform="translate(0,0)"/>
<path d="" fill="#3D3E3D" transform="translate(0,0)"/>
<path d="" fill="#3C3D3F" transform="translate(0,0)"/>
<path d="" fill="#3E3C3D" transform="translate(0,0)"/>
<path d="" fill="#3F3F3E" transform="translate(0,0)"/>
<path d="" fill="#3C3C3A" transform="translate(0,0)"/>
<path d="" fill="#414140" transform="translate(0,0)"/>
<path d="" fill="#585858" transform="translate(0,0)"/>
</svg>
